<?xml version="1.0" encoding="utf-8"?>
<!-- Generator: Adobe Illustrator 23.0.1, SVG Export Plug-In . SVG Version: 6.00 Build 0)  -->
<svg version="1.1" id="图层_1" xmlns="http://www.w3.org/2000/svg" xmlns:xlink="http://www.w3.org/1999/xlink" x="0px" y="0px"
	 viewBox="0 0 200 200" style="enable-background:new 0 0 200 200;" xml:space="preserve">
<style type="text/css">
	.st0{fill:#FFBA31;}
	.st1{fill:#FFFFFF;}
</style>
<path class="st0" d="M187.1,199.5H12.7c-6.9,0-12.4-5.6-12.4-12.5V12.8c0-6.9,5.6-12.5,12.4-12.5h174.3c6.9,0,12.5,5.6,12.5,12.5
	v174.3C199.5,193.9,193.9,199.5,187.1,199.5z"/>
<path class="st1" d="M151,150.3v6.1h-50v-6.1L151,150.3L151,150.3z M116.4,43.7c3.1-0.1,6.1,1.1,8.3,3.3c2.2,2.2,3.5,5.1,3.5,8.2
	v30.9c-1.2,0-2.3-0.2-3.5-0.2c-12.9-0.1-23.5,10.4-23.5,23.3c0,4.5,1.3,8.9,3.8,12.7c-8.7,0.2-15.6,7.2-15.8,15.9V152H57.6
	c-3.1,0.1-6.1-1.1-8.3-3.3c-2.2-2.2-3.5-5.1-3.5-8.2V55.2c0-3.1,1.2-6.1,3.5-8.2c2.2-2.2,5.2-3.4,8.3-3.3H116.4z M126,95.7
	c7.3-0.2,13.8,4.8,15.3,11.9s-2.2,14.4-9,17.2v7.2h14c2.1-0.1,4.1,0.7,5.6,2.2c1.5,1.5,2.3,3.4,2.3,5.5v7.4H97.8v-7.7
	c0-2,0.9-4,2.3-5.4c1.5-1.4,3.5-2.2,5.5-2.1h14v-7.2c-5.7-2.3-9.4-7.9-9.3-14C110.5,102.3,117.5,95.5,126,95.7L126,95.7z M95.2,85.2
	H64.6c-1.7-0.1-3.3,0.8-4.1,2.3c-0.9,1.5-0.9,3.3,0,4.7c0.9,1.5,2.4,2.3,4.1,2.3h30.6c1.7,0.1,3.3-0.8,4.1-2.3
	c0.9-1.5,0.9-3.3,0-4.7C98.5,86,96.9,85.1,95.2,85.2L95.2,85.2z M111.7,64.5H64.6c-1.7-0.1-3.3,0.8-4.1,2.3c-0.9,1.5-0.9,3.3,0,4.7
	c0.9,1.5,2.4,2.3,4.1,2.3h47c1.7,0.1,3.3-0.8,4.1-2.3c0.9-1.5,0.9-3.3,0-4.7C114.9,65.3,113.3,64.4,111.7,64.5L111.7,64.5z
	 M111.7,64.5"/>
</svg>
