<?xml version="1.0" encoding="UTF-8"?>
<svg width="18px" height="18px" viewBox="0 0 18 18" version="1.1" xmlns="http://www.w3.org/2000/svg" xmlns:xlink="http://www.w3.org/1999/xlink">
    <!-- Generator: Sketch 63 (92445) - https://sketch.com -->
    <title>侧边栏审核选中</title>
    <desc>Created with Sketch.</desc>
    <g id="侧边栏审核选中" stroke="none" stroke-width="1" fill="none" fill-rule="evenodd">
        <g id="编组备份-2">
            <rect id="矩形" x="0" y="0" width="18" height="18"></rect>
            <g id="侧边栏审核选中" transform="translate(1.000000, 0.000000)" fill="#FFFFFF" fill-rule="nonzero">
                <path d="M16.15,17 L8.78333333,17 C8.31184895,17 7.93333333,16.6193812 7.93333333,16.1453271 L7.93333333,14.8165779 C7.93333333,14.3425238 8.31184895,13.961905 8.78333333,13.961905 L16.15,13.961905 C16.6214843,13.961905 17,14.3425238 17,14.8165779 L17,16.1453271 C17,16.6216514 16.6214843,17 16.15,17 L16.15,17 Z M15.9618711,15.1014688 L8.97148437,15.1014688 L8.97148437,16.0518696 L15.9595911,16.0518696 L15.9595911,15.1014911 L15.9618711,15.1014911 L15.9618711,15.1014688 Z M12.75,11.0172898 C12.6548177,11.0172898 12.42903,11.0172898 12.3338477,11.0172898 L12.2785156,11.1129954 L10.7315576,14.0576551 L9.53815105,14.0576551 L11.4262578,10.7346691 C11.1429244,10.4497782 10.9547956,10.0691816 10.9547956,9.59510527 C10.9547956,8.74043238 11.6166667,8.07494491 12.4666667,8.07494491 C12.8779013,8.07494491 13.245096,8.2307141 13.5146073,8.48831444 C13.8021616,8.76316017 13.9785157,9.15392785 13.9785157,9.59510527 C13.9785157,10.0691816 13.7904089,10.4497782 13.5070756,10.7346691 L15.3952044,14.0576551 L14.2618711,13.961905 L12.75,11.0172898 Z M11.6166667,9.49712949 C11.6166667,9.87772602 11.8048177,10.162617 12.088151,10.2560745 C12.27704,10.3198783 12.4032118,10.3517801 12.4666667,10.3517801 C12.938151,10.3517801 13.3166667,9.97118364 13.3166667,9.49710723 C13.3166667,9.11878094 12.938151,8.64243435 12.4666667,8.64243435 C11.9951823,8.64245661 11.6166667,9.02305312 11.6166667,9.49712949 Z M8.97148437,13.5813085 C8.4048177,13.5813085 7.45959115,13.7704938 7.45959115,14.6251668 L7.45959115,16.0496216 L2.07853776,16.0496216 C0.945204432,16.0496216 0,15.0992209 0,13.959657 L0,2.08994227 C0,0.950378431 0.945182296,0 2.07851563,0 L11.9,0 C13.0333333,0 13.9785157,0.950378431 13.9785157,2.08994227 L13.9785157,7.31370737 C13.9785157,7.50287051 13.7904089,7.78776147 13.6,7.69430388 C13.1285157,7.50514074 12.6548177,7.40941293 12.6548177,7.40941293 C12.6548177,7.40941293 11.05,7.12452196 10.5762578,8.73816217 C10.5762578,8.73816217 10.1977422,10.2583225 10.8595911,10.8281045 C10.1047956,11.7785051 8.97146224,13.5813085 8.97146224,13.5813085 L8.97148437,13.5813085 Z M9.72851569,2.94463742 L3.4951823,2.94463742 C3.21184895,2.94463742 3.02374218,3.13380056 3.02374218,3.41869151 C3.02374218,3.70358248 3.21187109,3.89276788 3.49520443,3.89276788 L9.72853779,3.89276788 C10.0118711,3.89276788 10.2,3.70358248 10.2,3.41869151 C10.2,3.2317986 10.011849,2.94461516 9.72851556,2.94461516 L9.72851569,2.94463742 Z M9.72851569,6.08070819 L3.4951823,6.08070819 C3.21184895,6.08070819 3.02374218,6.2698936 3.02374218,6.55478456 C3.02374218,6.83967552 3.21184895,7.02881641 3.4951823,7.02881641 L9.72851556,7.02881641 C10.011849,7.02881641 10.1999779,6.83963101 10.1999779,6.55474004 C10.1999779,6.26984909 10.0118269,6.08068593 9.72849346,6.08068593 L9.72851569,6.08070819 Z" id="形状"></path>
            </g>
        </g>
    </g>
</svg>