<?xml version="1.0" standalone="no"?><!DOCTYPE svg PUBLIC "-//W3C//DTD SVG 1.1//EN" "http://www.w3.org/Graphics/SVG/1.1/DTD/svg11.dtd"><svg t="1722497603293" class="icon" viewBox="0 0 1024 1024" version="1.1" xmlns="http://www.w3.org/2000/svg" p-id="11890" xmlns:xlink="http://www.w3.org/1999/xlink" width="200" height="200"><path d="M107.52 20.48h611.328c10.24 0 20.48 4.096 27.648 10.752l197.632 183.296c8.192 7.68 13.312 18.432 13.312 30.208V962.56c0 22.528-18.432 40.96-40.96 40.96H107.52c-22.528 0-40.96-18.432-40.96-40.96V61.44c0-22.528 18.432-40.96 40.96-40.96z" fill="#30BF7C" p-id="11891"></path><path d="M459.97568 291.84h300.8c12.8768 0 23.31648 11.93984 23.31648 26.66496v38.0928c0 14.73024-10.43968 26.6752-23.31136 26.6752H459.97568c-12.8768 0-23.31136-11.94496-23.31136-26.6752v-38.0928C436.66432 303.77984 447.09888 291.84 459.97568 291.84z" fill="#FFFFFF" p-id="11892"></path><path d="M235.52 291.84m3.072 0l140.13952 0q3.072 0 3.072 3.072l0 85.28384q0 3.072-3.072 3.072l-140.13952 0q-3.072 0-3.072-3.072l0-85.28384q0-3.072 3.072-3.072Z" fill="#FFFFFF" p-id="11893"></path><path d="M659.74784 639.26784h102.4c12.11904 0 21.94432 11.93984 21.94432 26.66496v38.09792c0 14.72512-9.82528 26.66496-21.94432 26.66496h-102.4c-12.11904 0-21.94432-11.93984-21.94432-26.66496v-38.0928c0-14.73024 9.8304-26.67008 21.94432-26.67008z" fill="#FFFFFF" p-id="11894"></path><path d="M235.52 474.69568m3.072 0l542.42816 0q3.072 0 3.072 3.072l0 85.28384q0 3.072-3.072 3.072l-542.42816 0q-3.072 0-3.072-3.072l0-85.28384q0-3.072 3.072-3.072Z" fill="#FFFFFF" p-id="11895"></path><path d="M259.19488 639.26784h300.07808c13.07648 0 23.67488 11.93984 23.67488 26.66496v38.09792c0 14.72512-10.5984 26.66496-23.67488 26.66496H259.19488C246.1184 730.69568 235.52 718.75584 235.52 704.03072v-38.0928c0-14.73024 10.5984-26.67008 23.67488-26.67008z" fill="#FFFFFF" p-id="11896"></path></svg>