<?xml version="1.0" encoding="UTF-8"?>
<svg width="144px" height="144px" viewBox="0 0 144 144" version="1.1" xmlns="http://www.w3.org/2000/svg" xmlns:xlink="http://www.w3.org/1999/xlink">
    <!-- Generator: Sketch 63 (92445) - https://sketch.com -->
    <title>列表为空</title>
    <desc>Created with Sketch.</desc>
    <defs>
        <linearGradient x1="50%" y1="3.85205925%" x2="50%" y2="121.56033%" id="linearGradient-1">
            <stop stop-color="#779EEA" stop-opacity="0.4" offset="0%"></stop>
            <stop stop-color="#FFFFFF" stop-opacity="0" offset="100%"></stop>
        </linearGradient>
        <polyline id="path-2" points="7.18645381 6.01442713 11.8132625 11.5396736 22.7632787 3.25277938"></polyline>
    </defs>
    <g id="列表为空" stroke="none" stroke-width="1" fill="none" fill-rule="evenodd">
        <g id="编组">
            <g id="Group-3">
                <rect id="Rectangle-3" x="0" y="0" width="144" height="144"></rect>
            </g>
            <path d="M72,100 C106.372614,100 135.319819,115.997855 143.9999,135.999771 L9.95177594e-05,135.999771 C8.68018075,115.997855 37.6273857,100 72,100 Z" id="Combined-Shape" fill="url(#linearGradient-1)"></path>
            <g id="Group-5" transform="translate(31.000000, 30.000000)">
                <g id="Group-2" fill="#FFFFFF">
                    <path d="M5.17241379,1.27586207 L47.2931817,1.27586207 L47.2931817,1.27586207 L61.9137931,12.7578139 L61.9137931,68.4482759 C61.9137931,70.1051301 60.5706474,71.4482759 58.9137931,71.4482759 L5.17241379,71.4482759 C3.51555954,71.4482759 2.17241379,70.1051301 2.17241379,68.4482759 L2.17241379,4.27586207 C2.17241379,2.61900782 3.51555954,1.27586207 5.17241379,1.27586207 Z" id="Rectangle"></path>
                    <path d="M57,1 L6,1 C4.61928813,1 3.36928813,1.55964406 2.46446609,2.46446609 C1.55964406,3.36928813 1,4.61928813 1,6 L1,68 C1,69.3807119 1.55964406,70.6307119 2.46446609,71.5355339 C3.36928813,72.4403559 4.61928813,73 6,73 L57,73 C58.3807119,73 59.6307119,72.4403559 60.5355339,71.5355339 C61.4403559,70.6307119 62,69.3807119 62,68 L62,6 C62,4.61928813 61.4403559,3.36928813 60.5355339,2.46446609 C59.6307119,1.55964406 58.3807119,1 57,1 Z" id="Rectangle-4" stroke="#779EEA" stroke-width="2"></path>
                </g>
                <g id="Group-2" transform="translate(12.000000, 11.000000)">
                    <path d="M5.17241379,1.27586207 L47.2931817,1.27586207 L47.2931817,1.27586207 L61.9137931,12.7578139 L61.9137931,68.4482759 C61.9137931,70.1051301 60.5706474,71.4482759 58.9137931,71.4482759 L5.17241379,71.4482759 C3.51555954,71.4482759 2.17241379,70.1051301 2.17241379,68.4482759 L2.17241379,4.27586207 C2.17241379,2.61900782 3.51555954,1.27586207 5.17241379,1.27586207 Z" id="Rectangle" fill="#FFFFFF"></path>
                    <path d="M57,1 L6,1 C4.61928813,1 3.36928813,1.55964406 2.46446609,2.46446609 C1.55964406,3.36928813 1,4.61928813 1,6 L1,68 C1,69.3807119 1.55964406,70.6307119 2.46446609,71.5355339 C3.36928813,72.4403559 4.61928813,73 6,73 L57,73 C58.3807119,73 59.6307119,72.4403559 60.5355339,71.5355339 C61.4403559,70.6307119 62,69.3807119 62,68 L62,6 C62,4.61928813 61.4403559,3.36928813 60.5355339,2.46446609 C59.6307119,1.55964406 58.3807119,1 57,1 Z" id="Rectangle-4" stroke="#779EEA" stroke-width="2" fill="#FFFFFF"></path>
                    <rect id="Rectangle-23" fill="#779EEA" x="14" y="15" width="20" height="2"></rect>
                    <rect id="Rectangle-23-Copy" fill="#779EEA" x="14" y="23.5" width="32" height="2"></rect>
                    <rect id="Rectangle-23-Copy-2" fill="#779EEA" x="14" y="32" width="32" height="2"></rect>
                </g>
            </g>
            <g id="Group" transform="translate(103.566757, 90.445436) rotate(-315.000000) translate(-103.566757, -90.445436) translate(97.066757, 69.445436)">
                <path d="M8.57568529,1.89148566 L4.57568529,1.89148566 C3.74725817,1.89148566 2.99725817,2.2272721 2.45436495,2.77016532 C1.91147173,3.31305854 1.57568529,4.06305854 1.57568529,4.89148566 L1.57568529,33.1386124 L4.82496367,39.0216862 C5.00716286,39.3515721 5.27885891,39.6232682 5.60874485,39.8054673 C6.09219328,40.0724806 6.63810218,40.1182595 7.12990228,39.976423 C7.62170238,39.8345865 8.05939368,39.5051346 8.32640691,39.0216862 L11.5756853,33.1386124 L11.5756853,4.89148566 C11.5756853,4.06305854 11.2398989,3.31305854 10.6970056,2.77016532 C10.1541124,2.2272721 9.40411241,1.89148566 8.57568529,1.89148566 Z" id="Rectangle-7" stroke="#779EEA" stroke-width="2" fill="#F8FAFE"></path>
                <rect id="Rectangle-5" fill="#779EEA" x="1" y="8" width="11" height="2"></rect>
            </g>
            <g id="Group-4" transform="translate(57.000000, 84.000000)">
                <circle id="Oval" stroke="#779EEA" stroke-width="2" fill="#FFFFFF" cx="9.5" cy="9.5" r="9.5"></circle>
                <g id="Path-14">
                    <use stroke="#FFFFFF" stroke-width="8" xlink:href="#path-2"></use>
                    <use stroke="#779EEA" stroke-width="2" xlink:href="#path-2"></use>
                </g>
            </g>
        </g>
    </g>
</svg>