<?xml version="1.0" encoding="UTF-8"?>
<svg width="24px" height="12px" viewBox="0 0 24 12" version="1.1" xmlns="http://www.w3.org/2000/svg" xmlns:xlink="http://www.w3.org/1999/xlink">
    <!-- Generator: Sketch 63 (92445) - https://sketch.com -->
    <title>繁体</title>
    <desc>Created with Sketch.</desc>
    <g id="繁体" stroke="none" stroke-width="1" fill="none" fill-rule="evenodd">
        <g id="编组" transform="translate(1.000000, 0.000000)">
            <rect id="矩形" stroke="#FFFFFF" stroke-width="0.6" fill="#F09860" x="0" y="1" width="22" height="10" rx="4.5"></rect>
            <path d="M3.816,9.576 C4.816,8.336 5.112,6.344 5.208,4.344 L6.336,4.344 C6.208,7.344 6.064,8.448 5.84,8.704 C5.76,8.808 5.688,8.84 5.56,8.84 C5.416,8.84 5.112,8.832 4.776,8.8 C4.872,8.968 4.936,9.224 4.952,9.408 C5.288,9.432 5.616,9.432 5.824,9.4 C6.056,9.376 6.208,9.312 6.368,9.096 C6.656,8.728 6.784,7.544 6.936,4.072 L6.936,3.76 L5.224,3.76 C5.24,3.272 5.248,2.792 5.248,2.328 L4.656,2.328 C4.656,2.784 4.656,3.272 4.64,3.76 L3.52,3.76 L3.52,4.344 L4.624,4.344 C4.544,6.208 4.28,8.064 3.344,9.176 C3.504,9.264 3.704,9.44 3.816,9.576 Z M8.12,9.496 L8.12,8.912 L9.672,8.912 L9.672,9.44 L10.28,9.44 L10.28,3.304 L7.536,3.304 L7.536,9.496 L8.12,9.496 Z M9.672,8.336 L8.12,8.336 L8.12,3.88 L9.672,3.88 L9.672,8.336 Z M11.712,6.24 C12.408,6.016 13.12,5.704 13.768,5.328 L13.768,5.736 L16.248,5.736 L16.248,5.304 C16.896,5.664 17.616,5.96 18.264,6.136 C18.352,6 18.52,5.792 18.648,5.68 C17.488,5.408 16.072,4.784 15.304,4.152 C15.368,4.096 15.424,4.04 15.48,3.976 L15.184,3.832 C15.296,3.712 15.416,3.592 15.52,3.456 L16.288,3.456 C16.544,3.784 16.808,4.176 16.92,4.456 L17.472,4.272 C17.368,4.048 17.16,3.736 16.936,3.456 L18.528,3.456 L18.528,2.992 L15.84,2.992 C15.96,2.8 16.056,2.608 16.144,2.4 L15.584,2.272 C15.408,2.696 15.112,3.104 14.784,3.44 L14.784,2.992 L12.8,2.992 C12.896,2.8 12.984,2.608 13.056,2.408 L12.496,2.272 C12.24,2.968 11.808,3.672 11.328,4.136 C11.464,4.208 11.704,4.368 11.808,4.464 C12.064,4.184 12.32,3.84 12.552,3.456 L12.936,3.456 C13.104,3.792 13.264,4.2 13.32,4.464 L13.848,4.304 C13.792,4.088 13.664,3.744 13.52,3.456 L14.768,3.456 C14.656,3.568 14.552,3.664 14.432,3.744 C14.528,3.8 14.656,3.888 14.776,3.976 C13.96,4.768 12.608,5.432 11.36,5.792 C11.488,5.904 11.632,6.104 11.712,6.24 Z M16.248,5.304 L13.8,5.304 C14.232,5.048 14.632,4.76 14.992,4.456 C15.336,4.752 15.776,5.048 16.248,5.304 Z M11.76,9.632 C12.272,9.408 12.776,9.104 13.184,8.712 C13.552,8.896 13.952,9.152 14.176,9.344 L14.528,8.92 C14.288,8.744 13.904,8.504 13.536,8.328 C13.656,8.176 13.752,8.024 13.84,7.848 L13.736,7.824 L14.712,7.824 L14.712,6.168 L12.368,6.168 L12.368,7.824 L13.224,7.824 C12.864,8.448 12.152,8.912 11.368,9.2 C11.488,9.296 11.68,9.528 11.76,9.632 Z M14.712,9.632 C15.216,9.416 15.68,9.12 16.04,8.72 C16.8,8.968 17.64,9.336 18.128,9.616 L18.52,9.176 C18,8.904 17.12,8.536 16.368,8.296 C16.456,8.144 16.528,7.992 16.584,7.824 L17.656,7.824 L17.656,6.168 L15.272,6.168 L15.272,7.824 L16.008,7.824 C15.72,8.48 15.08,8.944 14.32,9.216 C14.448,9.312 14.64,9.528 14.712,9.632 Z M14.128,7.392 L12.936,7.392 L12.936,6.6 L14.128,6.6 L14.128,7.392 Z M17.072,7.392 L15.832,7.392 L15.832,6.6 L17.072,6.6 L17.072,7.392 Z" id="加簽" fill="#FFFFFF" fill-rule="nonzero"></path>
        </g>
    </g>
</svg>