<?xml version="1.0" encoding="UTF-8"?>
<svg width="43px" height="12px" viewBox="0 0 43 12" version="1.1" xmlns="http://www.w3.org/2000/svg" xmlns:xlink="http://www.w3.org/1999/xlink">
    <!-- Generator: Sketch 63 (92445) - https://sketch.com -->
    <title>英文</title>
    <desc>Created with Sketch.</desc>
    <g id="英文" stroke="none" stroke-width="1" fill="none" fill-rule="evenodd">
        <g id="编组-3">
            <rect id="矩形" x="0" y="0" width="43" height="12"></rect>
            <g id="编组-2">
                <g id="编组">
                    <rect id="矩形" stroke="#FFFFFF" stroke-width="0.6" fill="#F09860" x="0" y="1" width="42" height="10" rx="4.5"></rect>
                    <path d="M5.422,8 L5.422,3.415 L6.976,3.415 L6.976,2.869 L3.217,2.869 L3.217,3.415 L4.771,3.415 L4.771,8 L5.422,8 Z M8.852,8.091 C9.37,8.091 9.776,7.916 10.112,7.699 L9.881,7.279 C9.601,7.468 9.3,7.58 8.929,7.58 C8.208,7.58 7.711,7.062 7.669,6.25 L10.231,6.25 C10.245,6.159 10.259,6.026 10.259,5.886 C10.259,4.801 9.713,4.101 8.747,4.101 C7.865,4.101 7.032,4.871 7.032,6.103 C7.032,7.356 7.844,8.091 8.852,8.091 Z M9.699,5.795 L7.662,5.795 C7.739,5.046 8.215,4.612 8.754,4.612 C9.349,4.612 9.699,5.025 9.699,5.795 Z M11.834,8 L11.834,5.242 C12.184,4.85 12.506,4.661 12.793,4.661 C13.276,4.661 13.5,4.962 13.5,5.676 L13.5,8 L14.137,8 L14.137,5.242 C14.494,4.85 14.802,4.661 15.096,4.661 C15.579,4.661 15.803,4.962 15.803,5.676 L15.803,8 L16.44,8 L16.44,5.592 C16.44,4.619 16.069,4.101 15.285,4.101 C14.823,4.101 14.424,4.402 14.032,4.829 C13.878,4.381 13.563,4.101 12.982,4.101 C12.527,4.101 12.128,4.388 11.799,4.752 L11.778,4.752 L11.722,4.199 L11.197,4.199 L11.197,8 L11.834,8 Z M18.316,9.603 L18.316,8.315 L18.302,7.65 C18.645,7.93 19.009,8.091 19.352,8.091 C20.227,8.091 21.004,7.342 21.004,6.04 C21.004,4.871 20.472,4.101 19.492,4.101 C19.051,4.101 18.624,4.353 18.281,4.633 L18.26,4.633 L18.204,4.199 L17.679,4.199 L17.679,9.603 L18.316,9.603 Z M19.247,7.559 C18.995,7.559 18.659,7.454 18.316,7.16 L18.316,5.165 C18.687,4.822 19.016,4.64 19.338,4.64 C20.059,4.64 20.339,5.207 20.339,6.047 C20.339,6.992 19.877,7.559 19.247,7.559 Z M23.496,8.091 C24.427,8.091 25.26,7.363 25.26,6.103 C25.26,4.836 24.427,4.101 23.496,4.101 C22.565,4.101 21.732,4.836 21.732,6.103 C21.732,7.363 22.565,8.091 23.496,8.091 Z M23.496,7.559 C22.838,7.559 22.397,6.978 22.397,6.103 C22.397,5.228 22.838,4.633 23.496,4.633 C24.154,4.633 24.602,5.228 24.602,6.103 C24.602,6.978 24.154,7.559 23.496,7.559 Z M26.898,8 L26.898,5.557 C27.15,4.906 27.542,4.682 27.857,4.682 C28.011,4.682 28.102,4.696 28.228,4.745 L28.347,4.185 C28.228,4.122 28.109,4.101 27.941,4.101 C27.514,4.101 27.129,4.409 26.863,4.892 L26.842,4.892 L26.786,4.199 L26.261,4.199 L26.261,8 L26.898,8 Z M29.663,8.091 C30.132,8.091 30.559,7.846 30.923,7.545 L30.944,7.545 L31,8 L31.525,8 L31.525,5.662 C31.525,4.724 31.133,4.101 30.209,4.101 C29.6,4.101 29.061,4.374 28.711,4.598 L28.963,5.039 C29.264,4.836 29.663,4.633 30.104,4.633 C30.727,4.633 30.888,5.102 30.888,5.592 C29.271,5.774 28.55,6.187 28.55,7.013 C28.55,7.699 29.026,8.091 29.663,8.091 Z M29.845,7.58 C29.467,7.58 29.173,7.405 29.173,6.971 C29.173,6.481 29.607,6.166 30.888,6.012 L30.888,7.076 C30.517,7.405 30.216,7.58 29.845,7.58 Z M33.373,8 L33.373,5.557 C33.625,4.906 34.017,4.682 34.332,4.682 C34.486,4.682 34.577,4.696 34.703,4.745 L34.822,4.185 C34.703,4.122 34.584,4.101 34.416,4.101 C33.989,4.101 33.604,4.409 33.338,4.892 L33.317,4.892 L33.261,4.199 L32.736,4.199 L32.736,8 L33.373,8 Z M35.718,9.638 C36.474,9.638 36.866,9.064 37.132,8.315 L38.567,4.199 L37.944,4.199 L37.265,6.313 C37.16,6.649 37.048,7.034 36.943,7.377 L36.908,7.377 C36.789,7.034 36.656,6.642 36.544,6.313 L35.767,4.199 L35.102,4.199 L36.628,8.007 L36.544,8.294 C36.39,8.763 36.117,9.113 35.683,9.113 C35.585,9.113 35.473,9.078 35.396,9.05 L35.27,9.561 C35.389,9.61 35.536,9.638 35.718,9.638 Z" id="Temporary" fill="#FFFFFF" fill-rule="nonzero"></path>
                </g>
            </g>
        </g>
    </g>
</svg>