<?xml version="1.0" encoding="UTF-8"?>
<svg width="24px" height="12px" viewBox="0 0 24 12" version="1.1" xmlns="http://www.w3.org/2000/svg" xmlns:xlink="http://www.w3.org/1999/xlink">
    <!-- Generator: Sketch 63 (92445) - https://sketch.com -->
    <title>简体</title>
    <desc>Created with Sketch.</desc>
    <g id="简体" stroke="none" stroke-width="1" fill="none" fill-rule="evenodd">
        <g id="编组">
            <rect id="矩形" x="0" y="0" width="24" height="12"></rect>
            <rect id="矩形" stroke="#FFFFFF" stroke-width="0.6" fill="#F09860" x="1" y="1" width="22" height="10" rx="4.5"></rect>
            <path d="M4.816,9.576 C5.816,8.336 6.112,6.344 6.208,4.344 L7.336,4.344 C7.208,7.344 7.064,8.448 6.84,8.704 C6.76,8.808 6.688,8.84 6.56,8.84 C6.416,8.84 6.112,8.832 5.776,8.8 C5.872,8.968 5.936,9.224 5.952,9.408 C6.288,9.432 6.616,9.432 6.824,9.4 C7.056,9.376 7.208,9.312 7.368,9.096 C7.656,8.728 7.784,7.544 7.936,4.072 L7.936,3.76 L6.224,3.76 C6.24,3.272 6.248,2.792 6.248,2.328 L5.656,2.328 C5.656,2.784 5.656,3.272 5.64,3.76 L4.52,3.76 L4.52,4.344 L5.624,4.344 C5.544,6.208 5.28,8.064 4.344,9.176 C4.504,9.264 4.704,9.44 4.816,9.576 Z M9.12,9.496 L9.12,8.912 L10.672,8.912 L10.672,9.44 L11.28,9.44 L11.28,3.304 L8.536,3.304 L8.536,9.496 L9.12,9.496 Z M10.672,8.336 L9.12,8.336 L9.12,3.88 L10.672,3.88 L10.672,8.336 Z M12.816,4.672 C13.08,4.36 13.352,3.952 13.592,3.504 L13.952,3.504 C14.144,3.848 14.336,4.272 14.416,4.544 L14.944,4.392 C14.872,4.144 14.72,3.808 14.544,3.504 L15.816,3.504 L15.816,3.008 L13.824,3.008 C13.912,2.808 13.992,2.608 14.064,2.416 L13.512,2.272 C13.256,3.056 12.824,3.84 12.328,4.36 C12.472,4.432 12.712,4.576 12.816,4.672 Z M12.672,6.512 C13.872,6.112 15.112,5.456 16.008,4.64 C16.84,5.4 18.184,6.096 19.304,6.44 C19.392,6.288 19.552,6.064 19.688,5.952 C18.504,5.656 17.096,4.992 16.336,4.328 L16.504,4.136 L16.504,4.136 L16.208,3.984 C16.336,3.84 16.456,3.68 16.576,3.504 L17.32,3.504 C17.576,3.848 17.84,4.272 17.944,4.552 L18.504,4.416 C18.392,4.152 18.176,3.808 17.944,3.504 L19.488,3.504 L19.488,3.008 L16.872,3.008 C16.976,2.808 17.072,2.608 17.152,2.408 L16.592,2.272 C16.392,2.84 16.024,3.408 15.6,3.784 C15.688,3.832 15.816,3.92 15.928,4 C15.112,4.904 13.656,5.64 12.32,6.04 C12.456,6.16 12.584,6.376 12.672,6.512 Z M17.6,6.28 L17.6,5.776 L14.376,5.776 L14.376,6.28 L17.6,6.28 Z M16.104,8.376 L16.6,8.168 C16.48,7.76 16.168,7.088 15.872,6.576 L15.4,6.76 C15.688,7.264 15.992,7.952 16.104,8.376 Z M19.456,9.4 L19.456,8.872 L17.48,8.872 C17.864,8.256 18.28,7.472 18.6,6.776 L18.056,6.616 C17.728,7.384 17.256,8.256 16.8,8.872 L12.536,8.872 L12.536,9.4 L19.456,9.4 Z M14.304,8.52 L14.808,8.28 C14.64,7.88 14.256,7.24 13.912,6.768 L13.432,6.976 C13.776,7.464 14.152,8.112 14.304,8.52 Z" id="加签" fill="#FFFFFF" fill-rule="nonzero"></path>
        </g>
    </g>
</svg>