<?xml version="1.0" encoding="utf-8"?>
<!-- Generator: Adobe Illustrator 22.0.0, SVG Export Plug-In . SVG Version: 6.00 Build 0)  -->
<svg version="1.1" id="图层_1" xmlns="http://www.w3.org/2000/svg" xmlns:xlink="http://www.w3.org/1999/xlink" x="0px" y="0px"
	 viewBox="0 0 200 200" style="enable-background:new 0 0 200 200;" xml:space="preserve">
<style type="text/css">
	.st0{fill:url(#SVGID_1_);}
	.st1{opacity:0.8;fill:#FFFFFF;enable-background:new    ;}
</style>
<linearGradient id="SVGID_1_" gradientUnits="userSpaceOnUse" x1="0.5" y1="5.200195e-02" x2="0.5" y2="0.953" gradientTransform="matrix(192 0 0 168 4 16)">
	<stop  offset="0" style="stop-color:#71C7FF"/>
	<stop  offset="1" style="stop-color:#008FEC"/>
</linearGradient>
<path class="st0" d="M12,16h75.7c1.8,0,3.6,0.6,5,1.8l27.1,21.8c1.4,1.1,3.2,1.8,5,1.8H188c4.4,0,8,3.6,8,8V176c0,4.4-3.6,8-8,8H12
	c-4.4,0-8-3.6-8-8V24C4,19.6,7.6,16,12,16z"/>
<g>
	<path class="st1" d="M48,80.3V143c16.7-4,32-1.6,46,7V87.3C83.1,78.1,67.7,75.7,48,80.3z"/>
	<path class="st1" d="M106,87.3V150c14-8.6,29.3-11,46-7V80.3C132.3,75.7,116.9,78.1,106,87.3z"/>
</g>
</svg>
