<svg id="图层_1" data-name="图层 1" xmlns="http://www.w3.org/2000/svg" viewBox="0 0 16 16"><defs><style>.cls-1{fill:#1674c1;}.cls-2{fill:none;}.cls-3{fill:#2d98e0;}.cls-4{fill:#a1e1fc;}</style></defs><title>未标题-4</title><rect class="cls-1" x="11.34" y="13" width="2.22" height="0.5"/><rect class="cls-1" x="12.2" y="12.13" width="0.5" height="2.25"/><polygon class="cls-2" points="10.85 0.81 10.85 2.6 12.77 2.6 10.85 0.81"/><path class="cls-3" d="M13.66,10.71v.57a2.28,2.28,0,1,1-2.49,3.83h-.75a2.78,2.78,0,1,0,3.24-4.4Z"/><path class="cls-3" d="M13.66,3.1h-.5v7.43a2.3,2.3,0,0,1,.5.18Z"/><path class="cls-3" d="M2.58,14.61a.32.32,0,0,1-.33-.32V.82A.33.33,0,0,1,2.58.49h7.77V0H2.58a.83.83,0,0,0-.83.83V14.29a.83.83,0,0,0,.83.82h7.84a3.08,3.08,0,0,1-.37-.5Z"/><path class="cls-3" d="M10.65,14.61h-.6a3.08,3.08,0,0,0,.37.5h.75A2.05,2.05,0,0,1,10.65,14.61Z"/><path class="cls-3" d="M13.66,11.28v-.57a2.3,2.3,0,0,0-.5-.18v.52A2.27,2.27,0,0,1,13.66,11.28Z"/><path class="cls-3" d="M11.24.49h-.89V3.1h2.81V2.28Zm-.39.32L12.77,2.6H10.85Z"/><polygon class="cls-3" points="11.24 0.49 10.7 -0.01 10.35 -0.01 10.35 0.49 11.24 0.49"/><polygon class="cls-3" points="13.16 3.1 13.66 3.1 13.66 2.74 13.16 2.28 13.16 3.1"/><rect class="cls-3" x="3.52" y="3.73" width="8.04" height="0.83"/><rect class="cls-4" x="3.52" y="1.62" width="4.98" height="0.83"/><rect class="cls-3" x="3.52" y="5.21" width="8.04" height="0.83"/><path class="cls-3" d="M9.66,13.22a2.74,2.74,0,0,0,.39,1.39h.6a2.24,2.24,0,0,1-.49-1.39,1.92,1.92,0,0,1,.05-.41h-.5A2.87,2.87,0,0,0,9.66,13.22Z"/><path class="cls-3" d="M12.46,10.43a2.7,2.7,0,0,0-.9.16v.52a2.26,2.26,0,0,1,.9-.18,2.34,2.34,0,0,1,.7.12v-.52A2.75,2.75,0,0,0,12.46,10.43Z"/><path class="cls-4" d="M11.56,10.59V7h-8v5.84H9.71A2.77,2.77,0,0,1,11.56,10.59Z"/><path class="cls-3" d="M9.71,12.81h.5a2.27,2.27,0,0,1,1.35-1.7v-.52A2.77,2.77,0,0,0,9.71,12.81Z"/></svg>