<svg id="图层_1" data-name="图层 1" xmlns="http://www.w3.org/2000/svg" viewBox="0 0 16 16"><defs><style>.cls-1{fill:#0db3a6;}.cls-2{fill:#95dec4;}.cls-3{fill:#399986;}.cls-4{fill:#bcf5df;}.cls-5{fill:none;stroke:#0db3a6;stroke-miterlimit:10;stroke-width:0.5px;}</style></defs><title>未标题-4</title><rect class="cls-1" x="6.06" y="9.69" width="5.77" height="0.94" transform="translate(19.11 1.22) rotate(90)"/><rect class="cls-2" x="9.42" y="9.16" width="2.75" height="0.94" transform="translate(20.42 -1.17) rotate(90)"/><rect class="cls-3" x="10.83" y="12.99" width="2.22" height="0.5"/><rect class="cls-3" x="11.69" y="12.12" width="0.5" height="2.25"/><path class="cls-1" d="M9.65,13.21a2.3,2.3,0,0,1,2.29-2.29,2.4,2.4,0,0,1,.71.12v-.52a2.77,2.77,0,0,0-.71-.1,2.77,2.77,0,0,0-2.4,4.19h.6A2.29,2.29,0,0,1,9.65,13.21Z"/><path class="cls-1" d="M13.15,10.7v.57a2.29,2.29,0,1,1-2.49,3.84H9.91a2.79,2.79,0,1,0,3.24-4.41Z"/><path class="cls-1" d="M13.15,3.09h-.5v7.43a4.24,4.24,0,0,1,.5.18Z"/><path class="cls-1" d="M2.07,14.61a.33.33,0,0,1-.33-.33V.81A.33.33,0,0,1,2.07.48H9.84V0H2.07a.83.83,0,0,0-.83.83V14.28a.83.83,0,0,0,.83.83H9.91a3.59,3.59,0,0,1-.37-.5Z"/><path class="cls-1" d="M12.32,0H4.55v.5h7.77a.33.33,0,0,1,.33.33v9.71a4.24,4.24,0,0,1,.5.18V.81A.83.83,0,0,0,12.32,0Z"/><path class="cls-1" d="M9.54,14.61a3.59,3.59,0,0,0,.37.5h.75a2.47,2.47,0,0,1-.52-.5Z"/><path class="cls-1" d="M12.65,11a2.5,2.5,0,0,1,.5.23V10.7a4.24,4.24,0,0,0-.5-.18Z"/><rect class="cls-1" x="3.7" y="9.13" width="6.9" height="0.94" transform="translate(16.75 2.44) rotate(90)"/><rect class="cls-2" x="3.36" y="10.59" width="3.98" height="0.94" transform="translate(16.41 5.71) rotate(90)"/><rect class="cls-4" x="1.95" y="11.02" width="3.12" height="0.94" transform="translate(15 7.98) rotate(90)"/><rect class="cls-2" x="2.53" y="2.13" width="0.85" height="0.85"/><rect class="cls-2" x="3.92" y="2.13" width="0.85" height="0.85"/><polyline class="cls-5" points="2.96 7.28 4.78 4.78 7.99 5.34 11.35 2.42"/></svg>