<svg id="图层_1" data-name="图层 1" xmlns="http://www.w3.org/2000/svg" viewBox="0 0 16 16"><defs><style>.cls-1{fill:#f5a439;}.cls-2{fill:none;}.cls-3{fill:#ffead7;}</style></defs><title>未标题-4</title><rect class="cls-1" x="11.24" y="13" width="2.22" height="0.5"/><rect class="cls-1" x="12.1" y="12.13" width="0.5" height="2.25"/><polygon class="cls-2" points="10.76 0.81 10.76 2.6 12.68 2.6 10.76 0.81"/><path class="cls-1" d="M10.07,13.22a2.26,2.26,0,0,1,3-2.17v-.52a2.63,2.63,0,0,0-.7-.1,2.79,2.79,0,0,0-2.79,2.79A2.74,2.74,0,0,0,10,14.61h.6A2.24,2.24,0,0,1,10.07,13.22Z"/><path class="cls-1" d="M13.56,10.71v.57a2.26,2.26,0,0,1,1.09,1.94,2.29,2.29,0,0,1-2.29,2.29,2.26,2.26,0,0,1-1.28-.4h-.76a2.78,2.78,0,1,0,3.24-4.4Z"/><path class="cls-1" d="M13.56,3.1h-.5v7.43a2,2,0,0,1,.5.18Z"/><path class="cls-1" d="M2.49,14.61a.32.32,0,0,1-.33-.32V.82A.33.33,0,0,1,2.49.49h7.77V0H2.49a.83.83,0,0,0-.83.83V14.29a.83.83,0,0,0,.83.82h7.83a2.54,2.54,0,0,1-.36-.5Z"/><path class="cls-1" d="M10.56,14.61H10a2.54,2.54,0,0,0,.36.5h.76A1.9,1.9,0,0,1,10.56,14.61Z"/><path class="cls-1" d="M13.56,11.28v-.57a2,2,0,0,0-.5-.18v.52A2.07,2.07,0,0,1,13.56,11.28Z"/><path class="cls-1" d="M11.15.49h-.89V3.1h2.8V2.28Zm-.39.32L12.68,2.6H10.76Z"/><polygon class="cls-1" points="11.15 0.49 10.61 -0.01 10.26 -0.01 10.26 0.49 11.15 0.49"/><polygon class="cls-1" points="13.06 3.1 13.56 3.1 13.56 2.74 13.06 2.28 13.06 3.1"/><rect class="cls-3" x="3.86" y="11.75" width="3.64" height="0.64"/><rect class="cls-1" x="3.86" y="9.45" width="7.22" height="0.83"/><rect class="cls-1" x="7.2" y="3.1" width="0.72" height="4.05"/><rect class="cls-1" x="10.07" y="4.77" width="0.72" height="2.39"/><rect class="cls-1" x="4.33" y="5" width="0.72" height="2.15"/><rect class="cls-1" x="7.2" y="1.9" width="0.72" height="6.46" transform="translate(12.69 -2.43) rotate(90)"/><rect class="cls-1" x="6.88" y="1.71" width="1.4" height="1.4"/><rect class="cls-1" x="6.88" y="7.15" width="1.4" height="1.4"/><rect class="cls-1" x="9.73" y="7.15" width="1.4" height="1.4"/><rect class="cls-1" x="3.99" y="7.15" width="1.4" height="1.4"/></svg>