<svg id="图层_1" data-name="图层 1" xmlns="http://www.w3.org/2000/svg" viewBox="0 0 16 16"><defs><style>.cls-1{fill:#c384ef;}.cls-2{fill:#7a13d3;}.cls-3{fill:none;}.cls-4{fill:#9d65e5;}.cls-5{fill:#a26de6;}.cls-6{fill:#eee0fb;}</style></defs><title>未标题-4</title><path class="cls-1" d="M3.36,9.66v3.27H9.77s.23-1.39.92-1.69a2.23,2.23,0,0,0-1.55-.78A1.78,1.78,0,0,0,7.85,11a1.36,1.36,0,0,1-.87.35,3.68,3.68,0,0,1-1.17-.05A10.34,10.34,0,0,1,3.36,9.66Z"/><rect class="cls-2" x="11.17" y="13" width="2.22" height="0.5"/><rect class="cls-2" x="12.03" y="12.13" width="0.5" height="2.25"/><path class="cls-3" d="M13,.82a.33.33,0,0,0-.33-.33H11.07L13,2.28Z"/><polygon class="cls-3" points="10.68 0.81 10.68 2.6 12.61 2.6 10.68 0.81"/><path class="cls-4" d="M10,13.22a2.3,2.3,0,0,1,2.3-2.29,2.34,2.34,0,0,1,.7.12v-.52a2.75,2.75,0,0,0-.7-.1,2.8,2.8,0,0,0-2.8,2.79,2.74,2.74,0,0,0,.39,1.39h.6A2.24,2.24,0,0,1,10,13.22Z"/><path class="cls-4" d="M13.49,10.71v.57A2.28,2.28,0,1,1,11,15.11h-.75a2.78,2.78,0,1,0,3.24-4.4Z"/><path class="cls-4" d="M13.49,3.1H13v7.43a2.3,2.3,0,0,1,.5.18Z"/><path class="cls-4" d="M2.41,14.61a.32.32,0,0,1-.33-.32V.82A.33.33,0,0,1,2.41.49h7.77V0H2.41a.83.83,0,0,0-.83.83V14.29a.83.83,0,0,0,.83.82h7.84a3.08,3.08,0,0,1-.37-.5Z"/><path class="cls-4" d="M10.48,14.61h-.6a3.08,3.08,0,0,0,.37.5H11A2.05,2.05,0,0,1,10.48,14.61Z"/><path class="cls-4" d="M13.49,11.28v-.57a2.3,2.3,0,0,0-.5-.18v.52A2.27,2.27,0,0,1,13.49,11.28Z"/><path class="cls-5" d="M11.07.49h-.89V3.1H13V2.28Zm-.39.32L12.6,2.6H10.68Z"/><polygon class="cls-5" points="11.07 0.49 10.54 -0.01 10.18 -0.01 10.18 0.49 11.07 0.49"/><polygon class="cls-5" points="12.99 3.1 13.49 3.1 13.49 2.74 12.99 2.28 12.99 3.1"/><path class="cls-4" d="M5.65,6V3.6A2.4,2.4,0,1,0,8.05,6Z"/><path class="cls-1" d="M8.33,5.6a2.38,2.38,0,0,0-.41-1.34,2.51,2.51,0,0,0-.65-.65,2.56,2.56,0,0,0-.4-.22,2.47,2.47,0,0,0-.94-.19V5.6Z"/><rect class="cls-1" x="11.18" y="4.14" width="0.93" height="4.32"/><rect class="cls-6" x="9.53" y="5.84" width="0.74" height="2.62"/><rect class="cls-6" x="3.17" y="1.47" width="0.85" height="0.85"/><rect class="cls-6" x="4.56" y="1.47" width="0.85" height="0.85"/></svg>