<svg id="83fa1ebf-a1f2-4424-8d38-17124c8b1279" data-name="图层 1" xmlns="http://www.w3.org/2000/svg" xmlns:xlink="http://www.w3.org/1999/xlink" viewBox="0 0 200 200"><defs><linearGradient id="966508dc-d816-41a3-8e6f-e800058c3762" x1="0.5" y1="0.05" x2="0.5" y2="0.95" gradientTransform="translate(4 16) scale(192 168)" gradientUnits="userSpaceOnUse"><stop offset="0" stop-color="#71c7ff"/><stop offset="1" stop-color="#008fec"/></linearGradient></defs><title>个人文档库1</title><path d="M12,16H87.7a7.68,7.68,0,0,1,5,1.8l27.1,21.8a8.26,8.26,0,0,0,5,1.8H188a8,8,0,0,1,8,8V176a8,8,0,0,1-8,8H12a8,8,0,0,1-8-8V24A8,8,0,0,1,12,16Z" fill="url(#966508dc-d816-41a3-8e6f-e800058c3762)"/><path id="8fcb0086-0b0f-4576-abcc-765e08793849" data-name="Fill-1" d="M99,102a16,16,0,1,1,16-16,15.92,15.92,0,0,1-16,16" fill="#fff" opacity="0.8" style="isolation:isolate"/><path id="07a8ad79-a1ec-4e95-a179-74bc9ff4bab2" data-name="Fill-4" d="M68.7,154a4.2,4.2,0,0,1-4.3-3.3L63,133.6c-.5-6.4,5.3-13.6,12.6-15.9a82.51,82.51,0,0,1,48.7,0c7.3,2.3,13.3,9.5,12.6,15.9l-1.4,17.1c0,1.7-1.8,3.3-4.1,3.3Z" fill="#fff" opacity="0.8" style="isolation:isolate"/></svg>