<?xml version="1.0" encoding="UTF-8"?>
<svg width="32px" height="32px" viewBox="0 0 32 32" version="1.1" xmlns="http://www.w3.org/2000/svg" xmlns:xlink="http://www.w3.org/1999/xlink">
    <!-- Generator: Sketch 63 (92445) - https://sketch.com -->
    <title>环节</title>
    <desc>Created with Sketch.</desc>
    <g id="环节" stroke="none" stroke-width="1" fill="none" fill-rule="evenodd">
        <g id="编组-12备份-2">
            <circle id="椭圆形备份" fill="#146DE4" cx="16" cy="16" r="16"></circle>
            <path d="M24.9802246,22.7187097 C24.9802246,21.7225807 23.7354737,21 22.489624,21 L9.49060059,21 C8.24584962,21 7,21.6929032 7,22.7187097 L7,24.5522581 C7,24.8851613 7.56799315,25 7.98876952,25 L24.0112305,25 C24.4320068,25 25,24.883871 25,24.5522581 L25,22.72 L24.9813233,22.72 L24.9802246,22.7187097 Z M14.0091631,16.6596605 C14.3892234,17.0998832 14.3175549,17.5996587 14.3175549,18.119285 C14.3175549,18.6599299 14.4076835,19.1585377 14.0091631,19.5999282 L14.0091631,19.6594808 L13.8462801,19.6594808 C13.1947481,19.6594808 12.6518047,20.5200755 12.6518047,21 L19.3126337,21 C19.3126337,20.5597772 18.7696904,19.6594808 18.0996983,19.6594808 L17.9552753,19.6594808 L17.9552753,19.5999282 C17.575215,19.1597054 17.6468835,18.6599299 17.6468835,18.119285 C17.6468835,17.5996587 17.5567549,17.0800323 17.9552753,16.6596605 L17.9552753,16.2801581 C19.2214192,15.5001348 20,13.9996407 20,12.3998922 C20,9.98041855 18.1898269,8 16.0006793,8 C13.7919857,8 12.0002727,9.9395491 12.0002727,12.3601904 C11.9828985,14.080212 12.7973135,15.5596874 14.0091631,16.300009 L14.0091631,16.6596605 Z" id="形状" fill="#FFFFFF" fill-rule="nonzero"></path>
        </g>
    </g>
</svg>