<svg width="106" height="76" xmlns="http://www.w3.org/2000/svg">
 <!-- Generator: Sketch 63 (92445) - https://sketch.com -->

 <title>已通过</title>
 <desc>Created with Sketch.</desc>
 <g>
  <title>background</title>
  <rect fill="none" id="canvas_background" height="402" width="582" y="-1" x="-1"/>
 </g>
 <g>
  <title>Layer 1</title>
  <circle r="34" cy="37" cx="54" fill="#FFFFFF" id="椭圆形"/>
  <path fill-rule="nonzero" fill="#27BC22" fill-opacity="0.2" id="形状结合" d="m54,71c-13.86348,0 -25.79977,-8.20538 -31.1658,-19.99888l4.47823,0.00003c5.05829,9.51498 15.1115,15.99885 26.68757,15.99885c11.57607,0 21.62928,-6.48387 26.68757,-15.99885l4.47823,-0.00003c-5.36603,11.7935 -17.30232,19.99888 -31.1658,19.99888zm0,-15c-4.98026,0 -9.51546,-1.89489 -12.91634,-4.99921l3.21722,0.00004c2.75576,1.89149 6.09736,2.99917 9.69912,2.99917c3.60176,0 6.94336,-1.10768 9.69912,-2.99917l3.21722,-0.00004c-3.40088,3.10432 -7.93608,4.99921 -12.91634,4.99921zm0,-53c14.63482,0 27.12204,9.14385 31.99966,21.99993l-4.34201,0.00041c-4.65514,-10.59561 -15.28683,-18.00034 -27.65765,-18.00034c-12.37082,0 -23.00251,7.40473 -27.65765,18.00034l-4.34201,-0.00041c4.87762,-12.85608 17.36484,-21.99993 31.99966,-21.99993zm0,15c5.97573,0 11.31071,2.72811 14.81422,7.00021l-2.70469,0.00041c-3.09527,-3.08899 -7.37791,-5.00062 -12.10953,-5.00062c-4.73162,0 -9.01426,1.91163 -12.10953,5.00062l-2.70469,-0.00041c3.50351,-4.2721 8.83849,-7.00021 14.81422,-7.00021z"/>
  <text x="2.888889" y="13.888889" fill="#27BC22" font-weight="bold" font-size="13" font-family="SourceHanSansCN-Bold, Source Han Sans CN" id="已通过">
   <tspan id="svg_1" y="42.888889" x="36.166667">已通过</tspan>
  </text>
 </g>
</svg>