<svg width="106.00000000000001" height="76" xmlns="http://www.w3.org/2000/svg">
 <!-- Generator: Sketch 63 (92445) - https://sketch.com -->

 <title>已通繁体</title>
 <desc>Created with Sketch.</desc>
 <g>
  <title>background</title>
  <rect fill="none" id="canvas_background" height="402" width="582" y="-1" x="-1"/>
 </g>
 <g>
  <title>Layer 1</title>
  <circle r="34" cy="37" cx="54" fill="#FFFFFF" id="椭圆形"/>
  <path fill-rule="nonzero" fill="#27BC22" fill-opacity="0.2" id="形状结合" d="m54,71c-13.863475,0 -25.799767,-8.205381 -31.165801,-19.998882l4.47823,0.000036c5.058293,9.514977 15.111504,15.998846 26.687571,15.998846c11.576067,0 21.629278,-6.483869 26.687571,-15.998846l4.47823,-0.000036c-5.366034,11.793501 -17.302326,19.998882 -31.165801,19.998882zm0,-15c-4.980257,0 -9.515465,-1.894887 -12.916345,-4.999214l3.217222,0.000047c2.755761,1.891487 6.097363,2.999167 9.699123,2.999167c3.60176,0 6.943362,-1.10768 9.699123,-2.999167l3.217222,-0.000047c-3.40088,3.104327 -7.936088,4.999214 -12.916345,4.999214zm0,-53c14.634818,0 27.122036,9.143853 31.999658,21.999928l-4.342011,0.000413c-4.655141,-10.595611 -15.286826,-18.000341 -27.657647,-18.000341c-12.370821,0 -23.002506,7.40473 -27.657647,18.000341l-4.342011,-0.000413c4.877622,-12.856075 17.36484,-21.999928 31.999658,-21.999928zm0,15c5.975726,0 11.310707,2.728106 14.814216,7.000211l-2.704682,0.000408c-3.095278,-3.088988 -7.377915,-5.000619 -12.109534,-5.000619c-4.731619,0 -9.014256,1.911631 -12.109534,5.000619l-2.704682,-0.000408c3.503509,-4.272105 8.83849,-7.000211 14.814216,-7.000211z"/>
  <text x="1.64179" y="14.044771" fill="#27BC22" font-weight="bold" font-size="13" font-family="SourceHanSansCN-Bold, Source Han Sans CN" id="已通過">
   <tspan id="svg_1" y="43.044771" x="34.992537">已通過</tspan>
  </text>
 </g>
</svg>