<?xml version="1.0" encoding="UTF-8"?>
<svg width="16px" height="16px" viewBox="0 0 16 16" version="1.1" xmlns="http://www.w3.org/2000/svg" xmlns:xlink="http://www.w3.org/1999/xlink">
    <!-- Generator: Sketch 63 (92445) - https://sketch.com -->
    <title>pinglun</title>
    <desc>Created with Sketch.</desc>
    <g id="pinglun" stroke="none" stroke-width="1" fill="none" fill-rule="evenodd">
        <g id="编组" transform="translate(1.000000, 1.000000)">
            <g id="编组-11" fill="#FE666A" fill-rule="nonzero">
                <path d="M12.6459501,8.07473289 C12.6496558,8.03255578 12.6518792,7.99037869 12.6518792,7.94747441 L12.6518792,2.77714382 C12.6518792,2.39141753 12.4957124,2.02148959 12.2177336,1.74873992 C11.9397549,1.47599025 11.5627348,1.32276108 11.1696135,1.32276108 L2.15595552,1.32276108 C2.11222869,1.32276108 2.06924298,1.32421546 2.0269984,1.32785142 C2.09386072,0.576634959 2.73480249,0.000157081146 3.50333507,2.66453526e-14 L12.5177341,2.66453526e-14 C12.9108554,2.66453526e-14 13.2878755,0.153229162 13.5658543,0.42597883 C13.843833,0.698728499 13.9999999,1.06865644 13.9999999,1.45438272 L13.9999999,6.62544051 C14.0002241,7.37979524 13.4125932,8.00910406 12.6466912,8.07473289 L12.6459501,8.07473289 Z" id="路径"></path>
                <path d="M2.91314863,14 L3.74420324,10.0621469 L1.48226575,10.0621469 C1.08914443,10.0621469 0.712124337,9.90891772 0.434145586,9.63616805 C0.156166836,9.36341838 -1.41220369e-13,8.99349044 -1.41220369e-13,8.60776416 L-1.41220369e-13,3.43743357 C-1.41220369e-13,3.05170729 0.156166836,2.68177935 0.434145586,2.40902968 C0.712124337,2.13628001 1.08914443,1.98305085 1.48226575,1.98305085 L10.4959237,1.98305085 C11.3145564,1.98305085 11.9781894,2.63420017 11.9781894,3.43743357 L11.9781894,8.60776416 C11.9781894,9.41099756 11.3145564,10.0621469 10.4959237,10.0621469 L7.33647426,10.0621469 L2.91314863,14 Z" id="路径"></path>
            </g>
            <text id="1" font-family="SourceHanSansCN-Regular, Source Han Sans CN" font-size="6" font-weight="normal" fill="#FFFFFF">
                <tspan x="5" y="8">1</tspan>
            </text>
        </g>
    </g>
</svg>