<?xml version="1.0" encoding="UTF-8"?>
<svg width="200px" height="200px" viewBox="0 0 200 200" version="1.1" xmlns="http://www.w3.org/2000/svg" xmlns:xlink="http://www.w3.org/1999/xlink">
    <!-- Generator: Sketch 63 (92445) - https://sketch.com -->
    <title>画板</title>
    <desc>Created with Sketch.</desc>
    <defs>
        <linearGradient x1="50%" y1="3.85205925%" x2="50%" y2="121.56033%" id="linearGradient-1">
            <stop stop-color="#779EEA" stop-opacity="0.4" offset="0%"></stop>
            <stop stop-color="#FFFFFF" stop-opacity="0" offset="100%"></stop>
        </linearGradient>
    </defs>
    <g id="画板" stroke="none" stroke-width="1" fill="none" fill-rule="evenodd">
        <g id="编组-69备份" transform="translate(1.000000, 1.000000)">
            <g id="Group-4">
                <rect id="Rectangle-25" x="0" y="0" width="199" height="199"></rect>
                <path d="M56.6583962,144.509374 L56.6597222,146.013889 C56.6597222,149.327597 59.3460137,152.013889 62.6597222,152.013889 L62.6597222,152.013889 L137.722222,152.013889 C141.035931,152.013889 143.722222,149.327597 143.722222,146.013889 L143.722222,146.013889 L143.723902,144.944083 C170.548661,153.540758 191.001066,169.512207 198.999832,187.944058 L0.000167656199,187.944058 C8.13577459,169.196879 29.1547732,152.995007 56.6583962,144.509374 Z" id="Combined-Shape" fill="url(#linearGradient-1)"></path>
            </g>
            <path d="M85.4274809,112.534426 C83.9389313,112.459016 82.5648855,111.855738 81.5725191,110.87541 C80.4274809,109.744262 79.8931298,108.386885 79.8931298,106.690164 C79.8931298,105.106557 80.5038168,103.560656 81.5725191,102.504918 C82.7175573,101.37377 84.0916031,100.845902 85.8091603,100.845902 L89.3206107,100.845902 L89.3206107,97 L85.8091603,97 C83.1755725,97 80.6946565,98.0180328 78.8625954,99.8278689 C77.0305344,101.637705 76,104.088525 76,106.690164 C76,109.291803 77.0305344,111.742623 78.8625954,113.552459 C80.6183206,115.286885 82.9465649,116.267213 85.4274809,116.380328 L85.4274809,120 L91,114.532787 L85.4656489,108.877049 L85.4274809,112.534426 L85.4274809,112.534426 Z" id="路径" fill="#779EEA" fill-rule="nonzero"></path>
            <path d="M123.130102,84.8085809 C121.255102,82.9867987 118.806122,82 116.165816,82 L112.645408,82 L112.645408,85.8712871 L116.165816,85.8712871 C117.772959,85.8712871 119.341837,86.4785479 120.413265,87.5412541 C121.561224,88.679868 122.096939,90.0462046 122.096939,91.7541254 C122.096939,93.4620462 121.561224,94.8283828 120.413265,95.9669967 C119.341837,97.029703 118.079082,97.5610561 116.548469,97.6369637 L116.548469,93.9933993 L111,99.4966997 L116.548469,105 L116.548469,101.356436 C119.035714,101.280528 121.369898,100.255776 123.130102,98.509901 C124.966837,96.6881188 126,94.2211221 126,91.6023102 C126,89.0594059 124.966837,86.630363 123.130102,84.8085809 Z" id="路径" fill="#779EEA" fill-rule="nonzero"></path>
            <path d="M106.914634,83 L96.0853659,83 C94.9512195,83 94,83.6473029 94,84.4190871 L94,87.5809129 C94,88.3526971 94.9512195,89 96.0853659,89 L106.914634,89 C108.04878,89 109,88.3526971 109,87.5809129 L109,84.4190871 C109,83.6473029 108.04878,83 106.914634,83 Z" id="路径" fill="#779EEA" fill-rule="nonzero"></path>
            <path d="M106.914634,97 L96.0853659,97 C94.9512195,97 94,97.6473029 94,98.4190871 L94,101.580913 C94,102.352697 94.9512195,103 96.0853659,103 L106.914634,103 C108.04878,103 109,102.352697 109,101.580913 L109,98.4190871 C109,97.6473029 108.04878,97 106.914634,97 Z" id="路径" fill="#779EEA" fill-rule="nonzero"></path>
            <path d="M106.914634,110 L96.0853659,110 C94.9512195,110 94,110.647303 94,111.419087 L94,114.580913 C94,115.352697 94.9512195,116 96.0853659,116 L106.914634,116 C108.04878,116 109,115.352697 109,114.580913 L109,111.419087 C109,110.622407 108.04878,110 106.914634,110 Z" id="路径" fill="#779EEA" fill-rule="nonzero"></path>
            <path d="M138,51 L63,51 C61.6192881,51 60.3692881,51.5596441 59.4644661,52.4644661 C58.5596441,53.3692881 58,54.6192881 58,56 L58,135.116021 L79.5919028,151 L138,151 C139.380712,151 140.630712,150.440356 141.535534,149.535534 C142.440356,148.630712 143,147.380712 143,146 L143,74.1132755 L135.611588,74.9441621 L128.385805,68.6005026 L120.935195,70.8820781 L114.89543,66.4686754 L106.207937,64.6360604 L115.400009,62.0940123 L121.132863,63.4793337 L128.943568,61.7817064 L135.370286,68.1302219 L143,66.7530796 L143,56 C143,54.6192881 142.440356,53.3692881 141.535534,52.4644661 C140.630712,51.5596441 139.380712,51 138,51 Z" id="Rectangle-4" stroke="#779EEA" stroke-width="2" transform="translate(100.500000, 101.000000) scale(-1, -1) translate(-100.500000, -101.000000) "></path>
            <polyline id="Path-4" stroke="#779EEA" stroke-width="2" points="120 51 120 68 141 68"></polyline>
            <g id="点缀" transform="translate(19.000000, 14.000000)">
                <path d="M28.6955952,3.00441087 C29.2831618,3.00441087 29.7594786,3.48072768 29.7594786,4.06829423 L29.7593533,8.86941087 L34.5443076,8.87032264 C35.1333356,8.87032264 35.6108371,9.34782413 35.6108371,9.93685206 C35.6108371,10.52588 35.1333356,11.0033815 34.5443076,11.0033815 L29.7593533,11.0024109 L29.7594786,15.8054099 C29.7594786,16.3929764 29.2831618,16.8692932 28.6955952,16.8692932 C28.1080286,16.8692932 27.6317118,16.3929764 27.6317118,15.8054099 L27.6313533,11.0024109 L22.8468828,11.0033815 C22.2578548,11.0033815 21.7803533,10.52588 21.7803533,9.93685206 C21.7803533,9.34782413 22.2578548,8.87032264 22.8468828,8.87032264 L27.6313533,8.86941087 L27.6317118,4.06829423 C27.6317118,3.48072768 28.1080286,3.00441087 28.6955952,3.00441087 Z" id="Combined-Shape" fill="#779EEA" transform="translate(28.695595, 9.936852) rotate(-315.000000) translate(-28.695595, -9.936852) "></path>
                <path d="M141.13315,54.7992424 C141.515406,54.7992424 141.825286,55.1091224 141.825286,55.4913787 L141.825059,59.6562424 L145.976382,59.6562469 C146.359589,59.6562469 146.67024,59.9668976 146.67024,60.3501047 C146.67024,60.7333117 146.359589,61.0439624 145.976382,61.0439624 L141.825059,61.0432424 L141.825286,65.2088306 C141.825286,65.5910869 141.515406,65.9009669 141.13315,65.9009669 C140.750893,65.9009669 140.441013,65.5910869 140.441013,65.2088306 L140.440059,61.0432424 L136.289917,61.0439624 C135.90671,61.0439624 135.596059,60.7333117 135.596059,60.3501047 C135.596059,59.9668976 135.90671,59.6562469 136.289917,59.6562469 L140.440059,59.6562424 L140.441013,55.4913787 C140.441013,55.1091224 140.750893,54.7992424 141.13315,54.7992424 Z" id="Combined-Shape-Copy" fill="#779EEA" opacity="0.3" transform="translate(141.133150, 60.350105) rotate(-315.000000) translate(-141.133150, -60.350105) "></path>
                <path d="M18.4776874,71.0429625 C18.8599438,71.0429625 19.1698238,71.3528425 19.1698238,71.7350988 L19.1695968,75.8999625 L23.3209202,75.899967 C23.7041273,75.899967 24.014778,76.2106177 24.014778,76.5938248 C24.014778,76.9770318 23.7041273,77.2876825 23.3209202,77.2876825 L19.1695968,77.2869625 L19.1698238,81.4525507 C19.1698238,81.834807 18.8599438,82.144687 18.4776874,82.144687 C18.0954311,82.144687 17.7855511,81.834807 17.7855511,81.4525507 L17.7845968,77.2869625 L13.6344546,77.2876825 C13.2512476,77.2876825 12.9405968,76.9770318 12.9405968,76.5938248 C12.9405968,76.2106177 13.2512476,75.899967 13.6344546,75.899967 L17.7845968,75.8999625 L17.7855511,71.7350988 C17.7855511,71.3528425 18.0954311,71.0429625 18.4776874,71.0429625 Z" id="Combined-Shape-Copy-4" fill="#779EEA" opacity="0.3" transform="translate(18.477687, 76.593825) rotate(-315.000000) translate(-18.477687, -76.593825) "></path>
                <path d="M59.8222252,17.412804 C60.179996,17.412804 60.4700266,17.7028346 60.4700266,18.0606053 L60.4698147,22.548804 L64.9462452,22.5497134 C64.9784934,22.5497134 65.0046358,22.5758558 65.0046358,22.6081041 C65.0046358,22.6403523 64.9784934,22.6664947 64.9462452,22.6664947 L60.4698147,22.665804 L60.4700266,27.1556028 C60.4700266,27.5133736 60.179996,27.8034041 59.8222252,27.8034041 C59.4644545,27.8034041 59.1744239,27.5133736 59.1744239,27.1556028 L59.1738147,22.665804 L54.6982053,22.6664947 C54.6659571,22.6664947 54.6398147,22.6403523 54.6398147,22.6081041 C54.6398147,22.5758558 54.6659571,22.5497134 54.6982053,22.5497134 L59.1738147,22.548804 L59.1744239,18.0606053 C59.1744239,17.7028346 59.4644545,17.412804 59.8222252,17.412804 Z" id="Combined-Shape-Copy-2" fill="#779EEA" opacity="0.3" transform="translate(59.822225, 22.608104) rotate(-315.000000) translate(-59.822225, -22.608104) "></path>
                <ellipse id="Oval-7-Copy-3" stroke="#779EEA" opacity="0.6" cx="93.3361345" cy="19.3421053" rx="2.75630252" ry="2.76315789"></ellipse>
                <ellipse id="Oval-7-Copy-4" stroke="#779EEA" cx="12.7142857" cy="102.927632" rx="2.06722689" ry="2.07236842"></ellipse>
                <ellipse id="Oval-7-Copy-5" stroke="#779EEA" cx="150.529412" cy="101.546053" rx="2.06722689" ry="2.07236842"></ellipse>
                <path d="M154.358157,28.1691338 C155.004636,28.1691338 155.528711,28.6932088 155.528711,29.3396881 L155.52783,34.0361338 L160.208017,34.0364625 C160.856104,34.0364625 161.381483,34.561841 161.381483,35.2099282 C161.381483,35.8580154 160.856104,36.383394 160.208017,36.383394 L155.52783,36.3831338 L155.528711,41.0801683 C155.528711,41.7266476 155.004636,42.2507227 154.358157,42.2507227 C153.711677,42.2507227 153.187602,41.7266476 153.187602,41.0801683 L153.18683,36.3831338 L148.508296,36.383394 C147.860209,36.383394 147.33483,35.8580154 147.33483,35.2099282 C147.33483,34.561841 147.860209,34.0364625 148.508296,34.0364625 L153.18683,34.0361338 L153.187602,29.3396881 C153.187602,28.6932088 153.711677,28.1691338 154.358157,28.1691338 Z" id="Combined-Shape-Copy-3" fill="#779EEA" transform="translate(154.358157, 35.209928) rotate(-315.000000) translate(-154.358157, -35.209928) "></path>
                <path d="M116.124601,23.535935 C116.505167,23.535935 116.813677,23.8444447 116.813677,24.2250106 L116.813223,26.298935 L118.87919,26.2990929 C119.260703,26.2990929 119.56998,26.6083699 119.56998,26.9898824 C119.56998,27.3713949 119.260703,27.6806718 118.87919,27.6806718 L116.813223,27.679935 L116.813677,29.7547541 C116.813677,30.1353201 116.505167,30.4438297 116.124601,30.4438297 C115.744035,30.4438297 115.435526,30.1353201 115.435526,29.7547541 L115.435223,27.679935 L113.370013,27.6806718 C112.9885,27.6806718 112.679223,27.3713949 112.679223,26.9898824 C112.679223,26.6083699 112.9885,26.2990929 113.370013,26.2990929 L115.435223,26.298935 L115.435526,24.2250106 C115.435526,23.8444447 115.744035,23.535935 116.124601,23.535935 Z" id="Combined-Shape-Copy-5" fill="#779EEA" transform="translate(116.124601, 26.989882) rotate(-315.000000) translate(-116.124601, -26.989882) "></path>
                <path d="M6.84700061,36.2562799 C7.22756657,36.2562799 7.53607624,36.5647896 7.53607624,36.9453555 L7.53554683,39.7092799 L10.2906649,39.7102273 C10.6721774,39.7102273 10.9814544,40.0195042 10.9814544,40.4010167 C10.9814544,40.7825292 10.6721774,41.0918062 10.2906649,41.0918062 L7.53554683,41.0912799 L7.53607624,43.856678 C7.53607624,44.2372439 7.22756657,44.5457536 6.84700061,44.5457536 C6.46643465,44.5457536 6.15792498,44.2372439 6.15792498,43.856678 L6.15754683,41.0912799 L3.4033363,41.0918062 C3.02182381,41.0918062 2.71254683,40.7825292 2.71254683,40.4010167 C2.71254683,40.0195042 3.02182381,39.7102273 3.4033363,39.7102273 L6.15754683,39.7092799 L6.15792498,36.9453555 C6.15792498,36.5647896 6.46643465,36.2562799 6.84700061,36.2562799 Z" id="Combined-Shape-Copy-7" fill="#779EEA" transform="translate(6.847001, 40.401017) rotate(-315.000000) translate(-6.847001, -40.401017) "></path>
            </g>
        </g>
    </g>
</svg>