<?xml version="1.0" encoding="UTF-8"?>
<svg width="24px" height="12px" viewBox="0 0 24 12" version="1.1" xmlns="http://www.w3.org/2000/svg" xmlns:xlink="http://www.w3.org/1999/xlink">
    <!-- Generator: Sketch 63 (92445) - https://sketch.com -->
    <g id="简体备份" stroke="none" stroke-width="1" fill="none" fill-rule="evenodd">
        <g id="编组">
            <rect id="矩形" x="0" y="0" width="24" height="12"></rect>
            <rect id="矩形" stroke="#FFFFFF" stroke-width="0.6" fill="#F09860" x="1" y="1" width="22" height="11" rx="5.5"></rect>
            <path d="M3.882,10.63 C4.8,9.514 5.328,7.543 5.466,4.717 L5.466,4.717 L6.798,4.717 C6.66,7.771 6.468,9.439 6.222,9.721 C6.156,9.823 6.054,9.874 5.916,9.874 C5.64,9.874 5.34,9.859 5.016,9.829 C5.112,9.997 5.166,10.201 5.178,10.441 C5.592,10.471 5.919,10.471 6.159,10.441 C6.405,10.423 6.6,10.315 6.744,10.117 C7.032,9.769 7.251,7.879 7.401,4.447 C7.407,4.393 7.41,4.288 7.41,4.132 L7.41,4.132 L5.484,4.132 C5.502,3.574 5.511,3.031 5.511,2.503 L5.511,2.503 L4.917,2.503 C4.917,2.845 4.911,3.388 4.899,4.132 L4.899,4.132 L3.603,4.132 L3.603,4.717 L4.881,4.717 C4.755,7.399 4.263,9.241 3.405,10.243 C3.573,10.327 3.732,10.456 3.882,10.63 Z M8.715,10.558 L8.715,9.892 L10.56,9.892 L10.56,10.495 L11.181,10.495 L11.181,3.619 L8.121,3.619 L8.121,10.558 L8.715,10.558 Z M10.56,9.316 L8.715,9.316 L8.715,4.195 L10.56,4.195 L10.56,9.316 Z M12.864,5.122 C13.17,4.762 13.464,4.315 13.746,3.781 L13.746,3.781 L14.214,3.781 C14.466,4.243 14.64,4.642 14.736,4.978 L14.736,4.978 L15.267,4.825 C15.177,4.513 15.021,4.165 14.799,3.781 L14.799,3.781 L16.284,3.781 L16.284,3.286 L13.98,3.286 C14.094,3.028 14.187,2.794 14.259,2.584 L14.259,2.584 L13.701,2.44 C13.401,3.4 12.96,4.189 12.378,4.807 C12.558,4.885 12.72,4.99 12.864,5.122 Z M12.72,7.192 C14.238,6.688 15.498,5.971 16.5,5.041 C17.502,5.953 18.75,6.643 20.244,7.111 C20.37,6.889 20.499,6.724 20.631,6.616 C19.053,6.196 17.787,5.569 16.833,4.735 C16.857,4.711 16.89,4.672 16.932,4.618 L16.932,4.618 L17.022,4.51 L16.662,4.33 C16.788,4.186 16.929,4.003 17.085,3.781 L17.085,3.781 L17.958,3.781 C18.312,4.231 18.555,4.636 18.687,4.996 L18.687,4.996 L19.254,4.843 C19.116,4.519 18.9,4.165 18.606,3.781 L18.606,3.781 L20.415,3.781 L20.415,3.286 L17.373,3.286 C17.505,3.046 17.616,2.812 17.706,2.584 L17.706,2.584 L17.139,2.44 C16.899,3.136 16.527,3.709 16.023,4.159 C16.209,4.279 16.338,4.366 16.41,4.42 C15.48,5.422 14.13,6.187 12.36,6.715 C12.462,6.805 12.582,6.964 12.72,7.192 Z M18.291,6.913 L18.291,6.4 L14.673,6.4 L14.673,6.913 L18.291,6.913 Z M16.635,9.307 L17.139,9.1 C16.989,8.584 16.713,7.978 16.311,7.282 L16.311,7.282 L15.834,7.462 C16.218,8.128 16.485,8.743 16.635,9.307 L16.635,9.307 Z M20.379,10.441 L20.379,9.901 L18.066,9.901 C18.534,9.187 18.975,8.38 19.389,7.48 L19.389,7.48 L18.849,7.327 C18.369,8.383 17.88,9.241 17.382,9.901 L17.382,9.901 L12.585,9.901 L12.585,10.441 L20.379,10.441 Z M14.628,9.487 L15.132,9.244 C14.928,8.746 14.583,8.167 14.097,7.507 L14.097,7.507 L13.62,7.723 C14.088,8.377 14.424,8.965 14.628,9.487 L14.628,9.487 Z" id="加签" fill="#FFFFFF" fill-rule="nonzero"></path>
        </g>
    </g>
</svg>