<?xml version="1.0" encoding="UTF-8"?>
<svg width="24px" height="12px" viewBox="0 0 24 12" version="1.1" xmlns="http://www.w3.org/2000/svg" xmlns:xlink="http://www.w3.org/1999/xlink">
    <!-- Generator: Sketch 63 (92445) - https://sketch.com -->
    <g id="繁体备份" stroke="none" stroke-width="1" fill="none" fill-rule="evenodd">
        <g id="编组">
            <rect id="矩形" x="0" y="0" width="24" height="12"></rect>
            <rect id="矩形" stroke="#FFFFFF" stroke-width="0.6" fill="#F09860" x="1" y="1" width="22" height="11" rx="5.5"></rect>
            <path d="M3.882,10.63 C4.8,9.514 5.328,7.543 5.466,4.717 L5.466,4.717 L6.798,4.717 C6.66,7.771 6.468,9.439 6.222,9.721 C6.156,9.823 6.054,9.874 5.916,9.874 C5.64,9.874 5.34,9.859 5.016,9.829 C5.112,9.997 5.166,10.201 5.178,10.441 C5.592,10.471 5.919,10.471 6.159,10.441 C6.405,10.423 6.6,10.315 6.744,10.117 C7.032,9.769 7.251,7.879 7.401,4.447 C7.407,4.393 7.41,4.288 7.41,4.132 L7.41,4.132 L5.484,4.132 C5.502,3.574 5.511,3.031 5.511,2.503 L5.511,2.503 L4.917,2.503 C4.917,2.845 4.911,3.388 4.899,4.132 L4.899,4.132 L3.603,4.132 L3.603,4.717 L4.881,4.717 C4.755,7.399 4.263,9.241 3.405,10.243 C3.573,10.327 3.732,10.456 3.882,10.63 Z M8.715,10.558 L8.715,9.892 L10.56,9.892 L10.56,10.495 L11.181,10.495 L11.181,3.619 L8.121,3.619 L8.121,10.558 L8.715,10.558 Z M10.56,9.316 L8.715,9.316 L8.715,4.195 L10.56,4.195 L10.56,9.316 Z M14.628,4.906 L15.159,4.744 C15.099,4.468 14.973,4.135 14.781,3.745 L14.781,3.745 L16.248,3.745 L16.248,3.268 L13.953,3.268 C14.097,2.968 14.196,2.743 14.25,2.593 L14.25,2.593 L13.701,2.44 C13.377,3.31 12.936,4.015 12.378,4.555 C12.552,4.651 12.717,4.762 12.873,4.888 C13.143,4.594 13.419,4.213 13.701,3.745 L13.701,3.745 L14.196,3.745 C14.424,4.219 14.568,4.606 14.628,4.906 L14.628,4.906 Z M12.765,6.895 C14.247,6.415 15.489,5.731 16.491,4.843 C17.535,5.725 18.774,6.373 20.208,6.787 C20.328,6.589 20.457,6.433 20.595,6.319 C19.047,5.947 17.784,5.353 16.806,4.537 C16.902,4.441 16.971,4.369 17.013,4.321 L17.013,4.321 L16.653,4.15 C16.761,4.042 16.881,3.907 17.013,3.745 L17.013,3.745 L17.949,3.745 C18.285,4.159 18.528,4.543 18.678,4.897 L18.678,4.897 L19.209,4.708 C19.095,4.432 18.891,4.111 18.597,3.745 L18.597,3.745 L20.451,3.745 L20.451,3.268 L17.346,3.268 C17.472,3.07 17.595,2.842 17.715,2.584 L17.715,2.584 L17.139,2.44 C16.863,3.1 16.425,3.661 15.825,4.123 L15.825,4.123 L16.221,4.402 C15.285,5.302 14.013,5.98 12.405,6.436 C12.501,6.526 12.621,6.679 12.765,6.895 Z M17.904,6.301 L17.904,5.86 L15.105,5.86 L15.105,6.301 L17.904,6.301 Z M12.819,10.702 C13.485,10.402 14.028,10.048 14.448,9.64 C14.868,9.838 15.249,10.078 15.591,10.36 L15.591,10.36 L15.951,9.937 C15.639,9.697 15.255,9.466 14.799,9.244 C14.925,9.094 15.042,8.911 15.15,8.695 L15.15,8.695 L15.033,8.668 L16.158,8.668 L16.158,6.823 L13.566,6.823 L13.566,8.668 L14.538,8.668 C14.142,9.358 13.437,9.892 12.423,10.27 C12.555,10.384 12.687,10.528 12.819,10.702 Z M16.131,10.693 C16.755,10.429 17.265,10.078 17.661,9.64 C18.633,9.97 19.437,10.318 20.073,10.684 L20.073,10.684 L20.478,10.234 C19.674,9.826 18.84,9.484 17.976,9.208 C18.096,9.016 18.183,8.836 18.237,8.668 L18.237,8.668 L19.461,8.668 L19.461,6.823 L16.824,6.823 L16.824,8.668 L17.643,8.668 C17.343,9.388 16.707,9.925 15.735,10.279 C15.873,10.399 16.005,10.537 16.131,10.693 Z M15.573,8.218 L14.133,8.218 L14.133,7.273 L15.573,7.273 L15.573,8.218 Z M18.876,8.218 L17.391,8.218 L17.391,7.273 L18.876,7.273 L18.876,8.218 Z" id="加簽" fill="#FFFFFF" fill-rule="nonzero"></path>
        </g>
    </g>
</svg>