<?xml version="1.0" encoding="UTF-8"?>
<svg width="52px" height="14px" viewBox="0 0 52 14" version="1.1" xmlns="http://www.w3.org/2000/svg" xmlns:xlink="http://www.w3.org/1999/xlink">
    <!-- Generator: Sketch 63 (92445) - https://sketch.com -->
    <g id="英文备份" stroke="none" stroke-width="1" fill="none" fill-rule="evenodd">
        <g id="编组">
            <rect id="矩形" x="0" y="0" width="43" height="12"></rect>
            <rect id="矩形" stroke="#FFFFFF" stroke-width="0.6" fill="#F09860" x="0" y="1" width="51" height="12" rx="6"></rect>
            <path d="M5.051,10 L5.051,4.042 L7.067,4.042 L7.067,3.412 L2.288,3.412 L2.288,4.042 L4.295,4.042 L4.295,10 L5.051,10 Z M9.479,10.117 C10.025,10.117 10.556,9.952 11.072,9.622 L11.072,9.622 L10.802,9.136 C10.412,9.4 10.001,9.532 9.569,9.532 C9.083,9.532 8.69,9.367 8.39,9.037 C8.09,8.707 7.928,8.272 7.904,7.732 L7.904,7.732 L11.225,7.732 C11.249,7.63 11.261,7.483 11.261,7.291 C11.261,6.583 11.093,6.028 10.757,5.626 C10.421,5.218 9.95,5.014 9.344,5.014 C8.762,5.014 8.261,5.242 7.841,5.698 C7.397,6.19 7.175,6.817 7.175,7.579 C7.175,8.353 7.4,8.974 7.85,9.442 C8.276,9.892 8.819,10.117 9.479,10.117 Z M10.613,7.201 L7.895,7.201 C7.943,6.709 8.108,6.316 8.39,6.022 C8.66,5.746 8.981,5.608 9.353,5.608 C10.193,5.608 10.613,6.139 10.613,7.201 L10.613,7.201 Z M13.223,10 L13.223,6.445 C13.679,5.917 14.102,5.653 14.492,5.653 C15.128,5.653 15.446,6.103 15.446,7.003 L15.446,7.003 L15.446,10 L16.175,10 L16.175,6.445 C16.643,5.917 17.069,5.653 17.453,5.653 C18.083,5.653 18.398,6.103 18.398,7.003 L18.398,7.003 L18.398,10 L19.136,10 L19.136,6.913 C19.136,5.647 18.644,5.014 17.66,5.014 C17.168,5.014 16.628,5.329 16.04,5.959 C15.836,5.329 15.389,5.014 14.699,5.014 C14.201,5.014 13.697,5.296 13.187,5.86 L13.187,5.86 L13.16,5.86 L13.088,5.14 L12.494,5.14 L12.494,10 L13.223,10 Z M21.494,12.088 L21.494,10.405 L21.476,9.55 C21.956,9.928 22.412,10.117 22.844,10.117 C23.432,10.117 23.927,9.886 24.329,9.424 C24.755,8.938 24.968,8.293 24.968,7.489 C24.968,6.727 24.803,6.127 24.473,5.689 C24.131,5.239 23.648,5.014 23.024,5.014 C22.556,5.014 22.034,5.245 21.458,5.707 L21.458,5.707 L21.431,5.707 L21.359,5.14 L20.765,5.14 L20.765,12.088 L21.494,12.088 Z M22.736,9.496 C22.316,9.496 21.902,9.319 21.494,8.965 L21.494,8.965 L21.494,6.337 C21.998,5.869 22.451,5.635 22.853,5.635 C23.753,5.635 24.203,6.256 24.203,7.498 C24.203,8.104 24.065,8.59 23.789,8.956 C23.519,9.316 23.168,9.496 22.736,9.496 Z M28.154,10.117 C28.778,10.117 29.3,9.895 29.72,9.451 C30.17,8.977 30.395,8.353 30.395,7.579 C30.395,6.793 30.17,6.163 29.72,5.689 C29.3,5.239 28.778,5.014 28.154,5.014 C27.53,5.014 27.011,5.239 26.597,5.689 C26.147,6.163 25.922,6.793 25.922,7.579 C25.922,8.353 26.147,8.977 26.597,9.451 C27.017,9.895 27.536,10.117 28.154,10.117 Z M28.154,9.505 C27.716,9.505 27.362,9.328 27.092,8.974 C26.816,8.62 26.678,8.155 26.678,7.579 C26.678,6.997 26.816,6.529 27.092,6.175 C27.362,5.815 27.716,5.635 28.154,5.635 C28.592,5.635 28.949,5.815 29.225,6.175 C29.501,6.535 29.639,7.003 29.639,7.579 C29.639,8.155 29.501,8.62 29.225,8.974 C28.949,9.328 28.592,9.505 28.154,9.505 Z M32.447,10 L32.447,6.832 C32.747,6.064 33.164,5.68 33.698,5.68 C33.842,5.68 33.995,5.707 34.157,5.761 L34.157,5.761 L34.301,5.122 C34.157,5.05 33.986,5.014 33.788,5.014 C33.236,5.014 32.777,5.353 32.411,6.031 L32.411,6.031 L32.384,6.031 L32.312,5.14 L31.718,5.14 L31.718,10 L32.447,10 Z M35.993,10.117 C36.527,10.117 37.073,9.88 37.631,9.406 L37.631,9.406 L37.658,9.406 L37.721,10 L38.324,10 L38.324,6.985 C38.324,5.671 37.775,5.014 36.677,5.014 C36.065,5.014 35.435,5.227 34.787,5.653 L34.787,5.653 L35.084,6.166 C35.594,5.806 36.086,5.626 36.56,5.626 C37.262,5.626 37.607,6.061 37.595,6.931 C36.539,7.051 35.777,7.249 35.309,7.525 C34.823,7.813 34.58,8.221 34.58,8.749 C34.58,9.175 34.715,9.514 34.985,9.766 C35.243,10 35.579,10.117 35.993,10.117 Z M36.191,9.523 C35.591,9.523 35.291,9.25 35.291,8.704 C35.291,8.362 35.459,8.089 35.795,7.885 C36.161,7.675 36.761,7.522 37.595,7.426 L37.595,7.426 L37.595,8.848 C37.091,9.298 36.623,9.523 36.191,9.523 Z M40.655,10 L40.655,6.832 C40.955,6.064 41.372,5.68 41.906,5.68 C42.05,5.68 42.203,5.707 42.365,5.761 L42.365,5.761 L42.509,5.122 C42.365,5.05 42.194,5.014 41.996,5.014 C41.444,5.014 40.985,5.353 40.619,6.031 L40.619,6.031 L40.592,6.031 L40.52,5.14 L39.926,5.14 L39.926,10 L40.655,10 Z M43.625,12.124 C44.417,12.124 45.008,11.566 45.398,10.45 L45.398,10.45 L47.252,5.14 L46.532,5.14 L45.623,7.921 C45.569,8.083 45.5,8.308 45.416,8.596 C45.308,8.968 45.239,9.199 45.209,9.289 L45.209,9.289 L45.164,9.289 L44.678,7.921 L43.643,5.14 L42.878,5.14 L44.84,10.027 L44.732,10.405 C44.48,11.137 44.102,11.503 43.598,11.503 C43.478,11.503 43.352,11.479 43.22,11.431 L43.22,11.431 L43.067,12.025 C43.229,12.091 43.415,12.124 43.625,12.124 Z" id="Temporary" fill="#FFFFFF" fill-rule="nonzero"></path>
        </g>
    </g>
</svg>