<svg width="16" height="16" viewBox="0 0 16 16" fill="none" xmlns="http://www.w3.org/2000/svg">
<path d="M13.0277 2C13.3454 1.99999 13.6507 2.12339 13.8791 2.34415C14.1076 2.56491 14.2414 2.86578 14.2523 3.18329L14.253 3.2253V6.43436C14.2532 6.57106 14.2 6.70245 14.1049 6.8006C14.0097 6.89874 13.88 6.95591 13.7434 6.95994C13.6067 6.96398 13.4739 6.91456 13.3731 6.8222C13.2723 6.72984 13.2115 6.60182 13.2036 6.46534L13.2027 6.43436V3.2253C13.2027 3.18243 13.187 3.14104 13.1585 3.10901C13.13 3.07697 13.0908 3.0565 13.0482 3.05148L13.0277 3.05026H3.2253C3.18243 3.05026 3.14104 3.066 3.10901 3.09449C3.07697 3.12298 3.0565 3.16224 3.05148 3.20482L3.05026 3.2253V13.0277C3.05026 13.0706 3.066 13.1119 3.09449 13.144C3.12298 13.176 3.16224 13.1965 3.20482 13.2015L3.2253 13.2027H4.86965C5.00634 13.2026 5.1377 13.2558 5.23581 13.351C5.33392 13.4461 5.39105 13.5758 5.39506 13.7125C5.39907 13.8491 5.34965 13.9819 5.25729 14.0827C5.16493 14.1834 5.03692 14.2442 4.90046 14.2521L4.86965 14.253H3.2253C2.9076 14.253 2.60232 14.1296 2.37385 13.9088C2.14538 13.6881 2.01159 13.3872 2.0007 13.0697L2 13.0277V3.2253C1.99999 2.9076 2.12339 2.60232 2.34415 2.37385C2.56491 2.14538 2.86578 2.01159 3.18329 2.0007L3.2253 2H13.0277ZM7.95145 7.60137C8.08815 7.60124 8.2195 7.65441 8.31761 7.74959C8.41572 7.84477 8.47285 7.97445 8.47686 8.11109C8.48087 8.24772 8.43145 8.38053 8.33909 8.4813C8.24674 8.58207 8.11872 8.64286 7.98226 8.65075L7.95145 8.65162H5.15077C5.01408 8.65176 4.88272 8.59858 4.78461 8.5034C4.6865 8.40822 4.62937 8.27854 4.62536 8.14191C4.62135 8.00527 4.67077 7.87246 4.76313 7.77169C4.85549 7.67092 4.9835 7.61013 5.11996 7.60224L5.15077 7.60137H7.95145ZM11.1022 5.15077C11.2389 5.15064 11.3703 5.20381 11.4684 5.29899C11.5665 5.39417 11.6236 5.52385 11.6276 5.66049C11.6316 5.79712 11.5822 5.92993 11.4899 6.0307C11.3975 6.13147 11.2695 6.19226 11.133 6.20015L11.1022 6.20103H5.15077C5.01408 6.20116 4.88272 6.14798 4.78461 6.0528C4.6865 5.95762 4.62937 5.82794 4.62536 5.69131C4.62135 5.55467 4.67077 5.42186 4.76313 5.32109C4.85549 5.22032 4.9835 5.15953 5.11996 5.15164L5.15077 5.15077H11.1022Z" fill="black"/>
<path d="M11.6485 10.917C11.7432 11.0117 11.7981 11.139 11.8021 11.2728C11.806 11.4067 11.7587 11.537 11.6697 11.6371L11.6487 11.6595C11.554 11.7542 11.4267 11.8092 11.2928 11.8131C11.1589 11.8171 11.0285 11.7697 10.9284 11.6807L10.906 11.6597L9.66827 10.4218C9.57358 10.3271 9.51865 10.1998 9.51472 10.0659C9.51078 9.93206 9.55813 9.80175 9.64709 9.70165L9.6681 9.67924L10.906 8.44151C11.0027 8.34551 11.133 8.29086 11.2692 8.28911C11.4055 8.28735 11.5371 8.33864 11.6362 8.43213C11.7354 8.52561 11.7943 8.65398 11.8005 8.79011C11.8068 8.92624 11.7599 9.05946 11.6697 9.16164L11.6487 9.18405L11.307 9.52538H11.8899C13.195 9.52538 14.253 10.5833 14.253 11.8885C14.253 13.1754 13.2243 14.2221 11.9442 14.251L11.8899 14.2515H9.00171C8.86502 14.2517 8.73366 14.1985 8.63555 14.1033C8.53744 14.0081 8.48031 13.8784 8.4763 13.7418C8.47229 13.6052 8.52171 13.4724 8.61407 13.3716C8.70643 13.2708 8.83444 13.21 8.9709 13.2022L9.00171 13.2013H11.8899C12.2344 13.2012 12.565 13.0657 12.8105 12.8241C13.0559 12.5825 13.1966 12.2541 13.2022 11.9097C13.2078 11.5653 13.0778 11.2325 12.8403 10.9831C12.6028 10.7337 12.2767 10.5876 11.9324 10.5763L11.8899 10.5756H11.3074L11.6487 10.917H11.6485Z" fill="black"/>
</svg>
