<?xml version="1.0" standalone="no"?><!DOCTYPE svg PUBLIC "-//W3C//DTD SVG 1.1//EN" "http://www.w3.org/Graphics/SVG/1.1/DTD/svg11.dtd">
<svg t="1688367888947" class="icon" viewBox="0 0 1075 1024" version="1.1"
    xmlns="http://www.w3.org/2000/svg" p-id="19537" width="16.796875" height="16"
    xmlns:xlink="http://www.w3.org/1999/xlink">
    <path d="M594.1248 538.5216a30.72 30.72 0 0 1 33.0752 30.6176v158.72l367.36-289.28-367.36-337.8176v160.1024a30.72 30.72 0 0 1-28.2624 30.6176A584.0896 584.0896 0 0 0 61.4912 868.0448a683.1104 683.1104 0 0 1 532.6336-329.5232z m-492.9024 383.7952l-43.52 79.872C42.496 1030.2464 0 1019.392 0 987.5968v-113.8176A645.5808 645.5808 0 0 1 565.76 233.1136V30.7712A30.72 30.72 0 0 1 617.2672 8.192l445.44 409.6a30.72 30.72 0 0 1-1.792 46.7456l-445.44 350.72a30.72 30.72 0 0 1-49.664-24.1152v-187.904a621.6704 621.6704 0 0 0-464.5888 319.0784z" fill="#000000" p-id="19538"></path>
</svg>